<svg width="16" height="16" viewBox="0 0 16 16" fill="none" xmlns="http://www.w3.org/2000/svg">
<path d="M2.26925 0.0789795C1.66741 0.0789795 1.09022 0.31806 0.664648 0.743628C0.239081 1.16919 0 1.74639 0 2.34823V4.61748C0 5.03524 0.338659 5.3739 0.756417 5.3739C1.17417 5.3739 1.51283 5.03524 1.51283 4.61748V2.34823C1.51283 2.14762 1.59253 1.95522 1.73438 1.81336C1.87624 1.67151 2.06864 1.59181 2.26925 1.59181H4.5385C4.95626 1.59181 5.29492 1.25315 5.29492 0.835396C5.29492 0.417639 4.95626 0.0789795 4.5385 0.0789795H2.26925Z" fill="#2D3648"/>
<path d="M10.5898 0.0789795C10.1721 0.0789795 9.83342 0.417639 9.83342 0.835396C9.83342 1.25315 10.1721 1.59181 10.5898 1.59181H12.8591C13.0597 1.59181 13.2521 1.67151 13.394 1.81336C13.5358 1.95522 13.6155 2.14762 13.6155 2.34823V4.61748C13.6155 5.03524 13.9542 5.3739 14.3719 5.3739C14.7897 5.3739 15.1283 5.03524 15.1283 4.61748V2.34823C15.1283 1.74639 14.8893 1.16919 14.4637 0.743628C14.0381 0.318061 13.4609 0.0789795 12.8591 0.0789795H10.5898Z" fill="#2D3648"/>
<path d="M1.51283 10.6688C1.51283 10.2511 1.17417 9.9124 0.756417 9.9124C0.338659 9.9124 0 10.2511 0 10.6688V12.9381C0 13.5399 0.239081 14.1171 0.664648 14.5427C1.09021 14.9682 1.66741 15.2073 2.26925 15.2073H4.5385C4.95626 15.2073 5.29492 14.8687 5.29492 14.4509C5.29492 14.0331 4.95626 13.6945 4.5385 13.6945H2.26925C2.06864 13.6945 1.87624 13.6148 1.73438 13.4729C1.59253 13.3311 1.51283 13.1387 1.51283 12.9381V10.6688Z" fill="#2D3648"/>
<path d="M15.1283 10.6688C15.1283 10.2511 14.7897 9.9124 14.3719 9.9124C13.9542 9.9124 13.6155 10.2511 13.6155 10.6688V12.9381C13.6155 13.1387 13.5358 13.3311 13.394 13.4729C13.2521 13.6148 13.0597 13.6945 12.8591 13.6945H10.5898C10.1721 13.6945 9.83342 14.0331 9.83342 14.4509C9.83342 14.8687 10.1721 15.2073 10.5898 15.2073H12.8591C13.4609 15.2073 14.0381 14.9682 14.4637 14.5427C14.8893 14.1171 15.1283 13.5399 15.1283 12.9381V10.6688Z" fill="#2D3648"/>
</svg>
