<svg
      width="40"
      height="40"
      viewBox="0 0 22 37"
      fill="none"
      xmlns="http://www.w3.org/2000/svg"
    >
      <path
        d="M10.6932 1.11682L10.4184 1.4832C6.98961 5.74653 4.76321 9.54921 3.27761 12.7061L3.2776 12.7061L3.27677 12.7079C0.690547 18.3263 0.750659 21.7337 0.760097 22.2686C0.760505 22.2918 0.760819 22.3096 0.760819 22.3219C0.760819 27.5804 3.22976 30.9679 5.70703 33.0342C6.94385 34.0659 8.1828 34.7687 9.11854 35.2139C9.58664 35.4366 9.97974 35.5952 10.26 35.6986C10.4001 35.7502 10.5124 35.7882 10.5922 35.8135C10.632 35.8262 10.6645 35.8359 10.6889 35.8428C10.7008 35.8461 10.7122 35.8492 10.7222 35.8516C10.727 35.8527 10.7334 35.8542 10.7402 35.8555L10.7403 35.8555C10.7422 35.8559 10.7634 35.8603 10.7885 35.8603H10.8808H10.9732C10.9983 35.8603 11.0195 35.8559 11.0214 35.8555L11.0215 35.8555C11.0283 35.8542 11.0346 35.8527 11.0395 35.8516C11.0495 35.8492 11.0609 35.8461 11.0728 35.8428C11.0972 35.8359 11.1297 35.8262 11.1695 35.8135C11.2493 35.7882 11.3616 35.7502 11.5017 35.6986C11.782 35.5952 12.1751 35.4366 12.6432 35.2139C13.5789 34.7687 14.8178 34.0659 16.0547 33.0342C18.5277 30.9714 20.9925 27.5919 21.0009 22.3487C21.0042 22.331 21.0064 22.3144 21.008 22.3016C21.0117 22.2715 21.0149 22.235 21.0174 22.1929C21.0225 22.1084 21.0254 21.9952 21.0238 21.8544C21.0206 21.5727 20.9994 21.1761 20.9401 20.6719C20.8213 19.6634 20.5495 18.2221 19.9617 16.4062C18.786 12.7743 16.3469 7.64581 11.343 1.48277L11.0685 1.11683L10.8809 0.866617L10.6932 1.11682ZM19.4735 25.7828H11.485V20.4316H19.7304C19.8035 20.9805 19.8421 21.4339 19.8624 21.7591C19.8738 21.9412 19.8794 22.0829 19.8822 22.1787C19.8836 22.2265 19.8843 22.2629 19.8847 22.287L19.885 22.3139L19.885 22.3203L19.885 22.3217V22.3219L19.4735 25.7828ZM10.3691 3.51959V18.3373L4.69606 12.6642C5.91906 10.0748 7.78477 6.9267 10.3691 3.51959ZM11.485 19.3157V3.50933C16.8902 10.5052 18.7878 16.062 19.4636 19.3157H11.485ZM4.12091 13.7688L9.57544 19.2233H2.29714C2.58279 17.8475 3.16779 15.9631 4.12091 13.7688ZM1.96906 22.322L1.96906 22.3218L1.96907 22.3207L1.9691 22.3151L1.96939 22.2911C1.96973 22.2695 1.97043 22.2364 1.97183 22.1922C1.97464 22.1038 1.98029 21.9706 1.99167 21.7942C2.01213 21.4771 2.05111 21.0201 2.12536 20.4316H10.3691V34.5357C8.16504 33.5937 1.96906 30.3221 1.96906 22.322ZM19.1391 26.8987C17.3706 31.604 13.1901 33.7525 11.485 34.4502V26.8987H19.1391Z"
        fill="#E1A346"
        stroke="#E1A346"
        stroke-width="0.469143"
      />
    </svg>