<svg width="27" height="27" viewBox="0 0 27 27" fill="none" xmlns="http://www.w3.org/2000/svg">
<path d="M23.7069 9.59443V17.0044C23.7069 18.2177 23.0569 19.3444 22.0061 19.9619L15.5711 23.6778C14.5202 24.2844 13.2202 24.2844 12.1585 23.6778L5.72355 19.9619C4.67271 19.3553 4.02271 18.2286 4.02271 17.0044V9.59443C4.02271 8.3811 4.67271 7.25439 5.72355 6.63689L12.1585 2.92106C13.2094 2.3144 14.5094 2.3144 15.5711 2.92106L22.0061 6.63689C23.0569 7.25439 23.7069 8.37027 23.7069 9.59443Z" stroke="#FD4E05" stroke-width="1.62569" stroke-linecap="round" stroke-linejoin="round"/>
<path d="M12.0789 16.5374H10.815L8.70116 13.337V16.5374H7.43726V11.3487H8.70116L10.815 14.5639V11.3487H12.0789V16.5374ZM16.3729 11.3487V12.3613H14.259V13.4552H15.8407V14.4382H14.259V16.5374H12.9951V11.3487H16.3729ZM20.7697 11.3487V12.3613H19.395V16.5374H18.1311V12.3613H16.7563V11.3487H20.7697Z" fill="#FD4E05"/>
</svg>